<?xml version="1.0" encoding="utf-8"?>
<!-- Generator: Adobe Illustrator 16.0.3, SVG Export Plug-In . SVG Version: 6.00 Build 0)  -->
<!DOCTYPE svg PUBLIC "-//W3C//DTD SVG 1.0//EN" "http://www.w3.org/TR/2001/REC-SVG-20010904/DTD/svg10.dtd">
<svg version="1.0" id="Ebene_1" xmlns="http://www.w3.org/2000/svg" xmlns:xlink="http://www.w3.org/1999/xlink" x="0px" y="0px"
	 width="595.28px" height="595.28px" viewBox="0 0 595.28 595.28" enable-background="new 0 0 595.28 595.28" xml:space="preserve">
<polygon fill="#F39200" points="223.577,45.79 223.434,45.789 223.434,129.913 242.634,129.905 297.297,3.72 "/>
<polygon fill="#F39200" points="224.861,297.421 224.881,297.435 224.859,297.421 224.56,297.743 369.837,549.499 369.91,549.499 
	370.125,213.421 "/>
<polygon fill="#EC6608" points="166.39,196.729 79.252,213.528 79.214,213.55 79.141,213.548 79.141,297.547 79.284,297.549 
	151.889,339.467 151.936,339.439 514.909,129.548 "/>
<polygon fill="#E74011" points="297.297,3.72 151.936,339.439 260.75,276.469 "/>
<polyline fill="#F39200" points="297.277,591.771 369.879,549.853 369.952,549.853 370.096,297.891 370.166,297.851 
	370.132,297.831 370.166,297.809 370.166,297.77 370.096,297.851 297.133,591.853 "/>
<polygon fill="#F39200" points="223.434,129.913 166.444,196.729 79.197,297.547 79.34,297.549 151.945,339.467 151.992,339.439 
	218.028,186.786 242.634,129.905 "/>
<polygon fill="#A42423" points="297.297,3.72 285.079,94.638 280.395,129.628 224.176,549.506 369.813,129.875 369.813,129.628 
	369.926,129.628 370.012,129.38 370.012,45.627 "/>
<polygon fill="#F39200" points="514.19,213.563 514.19,129.769 368.982,297.687 368.982,297.727 369.055,297.77 369.055,297.686 
	514.548,213.77 "/>
<polygon fill="#BD1D1D" points="514.67,129.645 224.27,297.573 224.291,297.585 224.269,297.573 223.969,297.893 369.465,297.563 
	369.536,297.563 514.744,129.645 "/>
<polygon fill="#F39200" points="224.386,297.845 224.243,549.6 224.314,549.6 258.033,297.77 "/>
<polyline fill="#F39200" points="297.133,591.853 370.096,297.851 370.166,297.77 370.096,297.77 343.924,297.829 297.133,591.853 
	"/>
<polygon fill="#BD1D1D" points="223.434,129.913 78.266,213.769 513.925,129.789 "/>
<polyline fill="#BD1D1D" points="296.848,591.55 318.075,460.275 355.539,221.769 365.498,158.372 370.023,129.548 370.011,129.548 
	359.613,159.506 333.601,234.454 278.829,392.267 224.243,549.551 296.848,591.469 "/>
<polygon fill="#E74011" points="369.278,129.789 514.27,129.789 441.664,87.872 441.664,87.79 441.595,87.831 441.523,87.79 
	441.523,87.872 369.349,129.542 369.263,129.789 "/>
<polyline fill="#F39200" points="297.074,591.771 442.424,507.854 442.424,423.852 442.229,423.965 296.931,591.853 "/>
<polyline fill="#E74011" points="297.126,591.55 355.313,524.318 360.149,518.729 442.424,423.661 370.04,381.872 369.871,382.355 
	369.871,382.355 333.592,486.683 297.126,591.55 "/>
</svg>
